<?xml version="1.0" encoding="utf-8"?>
<!-- Generator: Adobe Illustrator 19.0.1, SVG Export Plug-In . SVG Version: 6.00 Build 0)  -->
<svg version="1.1" id="Слой_1" xmlns="http://www.w3.org/2000/svg" xmlns:xlink="http://www.w3.org/1999/xlink" x="0px" y="0px"
	 viewBox="0 0 770 300" enable-background="new 0 0 770 300" xml:space="preserve">
<g>
	<g>
		<path d="M6,155.5c6.9,0,13.8,0,20.7,0c18.6,0,37.3,0,55.9,0c27.5,0,55.1,0,82.6,0c33.8,0,67.5,0,101.3,0c37,0,74,0,111,0
			c37.2,0,74.4,0,111.5,0c34.7,0,69.3,0,104,0c29.4,0,58.9,0,88.3,0c21.1,0,42.2,0,63.2,0c10,0,20.1,0.3,30.1,0c0.4,0,0.9,0,1.3,0
			c6.4,0,6.4-10,0-10c-6.9,0-13.8,0-20.7,0c-18.6,0-37.3,0-55.9,0c-27.5,0-55.1,0-82.6,0c-33.8,0-67.5,0-101.3,0c-37,0-74,0-111,0
			c-37.2,0-74.4,0-111.5,0c-34.7,0-69.3,0-104,0c-29.4,0-58.9,0-88.3,0c-21.1,0-42.2,0-63.2,0c-10,0-20.1-0.3-30.1,0
			c-0.4,0-0.9,0-1.3,0C-0.4,145.5-0.4,155.5,6,155.5L6,155.5z"/>
	</g>
</g>
<g>
	<g>
		<path d="M10.5,151c0-25,0-50,0-75c0-6.4-10-6.4-10,0c0,25,0,50,0,75C0.5,157.4,10.5,157.4,10.5,151L10.5,151z"/>
	</g>
</g>
<g>
	<g>
		<path d="M759.5,151c0,25,0,50,0,75c0,6.4,10,6.4,10,0c0-25,0-50,0-75C769.5,144.6,759.5,144.6,759.5,151L759.5,151z"/>
	</g>
</g>
</svg>
